<?xml version='1.0' encoding='utf-8'?>
<svg xmlns:xlink="http://www.w3.org/1999/xlink" xmlns="http://www.w3.org/2000/svg" width="11.6929in" height="8.26772in" version="1.1" style="shape-rendering:geometricPrecision; text-rendering:geometricPrecision; image-rendering:optimizeQuality; fill-rule:evenodd; clip-rule:evenodd" viewBox="0 0 11693 8268"> <defs> <style type="text/css">  .fil14 {fill:none} .fil11 {fill:#FEFEFE} .fil0 {fill:#FEFEFE} .fil13 {fill:#E6E7E8} .fil1 {fill:#D2D3D5} .fil2 {fill:#4B4B4D} .fil3 {fill:#FDD1A1} .fil12 {fill:#D2AE6D} .fil15 {fill:#A45E4D} .fil7 {fill:#ED3237} .fil8 {fill:#D9383E} .fil17 {fill:url(#id0)} .fil9 {fill:url(#id1)} .fil10 {fill:url(#id2)} .fil16 {fill:url(#id3)} .fil6 {fill:url(#id4)} .fil5 {fill:url(#id5)} .fil4 {fill:url(#id6)}  </style> <linearGradient id="id0" gradientUnits="userSpaceOnUse" x1="6278.38" y1="3547.7" x2="6267.65" y2="3390.78"> <stop offset="0" style="stop-opacity:1; stop-color:#D03A3E"/> <stop offset="0.341176" style="stop-opacity:1; stop-color:#D03A3E"/> <stop offset="1" style="stop-opacity:1; stop-color:#ED3237"/> </linearGradient> <linearGradient id="id1" gradientUnits="userSpaceOnUse" x1="5361.63" y1="4338.23" x2="6230.54" y2="4338.23"> <stop offset="0" style="stop-opacity:1; stop-color:#BB3A3F"/> <stop offset="1" style="stop-opacity:1; stop-color:#ED3237"/> </linearGradient> <linearGradient id="id2" gradientUnits="userSpaceOnUse" xlink:href="#id0" x1="5202.72" y1="3562.09" x2="5190.59" y2="3384.56"> </linearGradient> <linearGradient id="id3" gradientUnits="userSpaceOnUse" x1="5870.21" y1="5586.74" x2="5891.7" y2="4658.46"> <stop offset="0" style="stop-opacity:1; stop-color:#B77461"/> <stop offset="1" style="stop-opacity:1; stop-color:#CE8F64"/> </linearGradient> <linearGradient id="id4" gradientUnits="userSpaceOnUse" x1="6016.86" y1="2517.12" x2="5585.54" y2="5161.67"> <stop offset="0" style="stop-opacity:1; stop-color:#FFFBD6"/> <stop offset="1" style="stop-opacity:1; stop-color:#FEFEFE"/> </linearGradient> <radialGradient id="id5" gradientUnits="userSpaceOnUse" gradientTransform="matrix(1.21788 -0 -0 1.21788 -1278 -862)" cx="5865.71" cy="3954.67" r="2032.43" fx="5865.71" fy="3954.67"> <stop offset="0" style="stop-opacity:1; stop-color:#FFFBD6"/> <stop offset="1" style="stop-opacity:1; stop-color:#F9AA75"/> </radialGradient> <radialGradient id="id6" gradientUnits="userSpaceOnUse" gradientTransform="matrix(2.27984 -0 -0 2.27983 -7447 -3563)" cx="5818.78" cy="2784.06" r="1815.37" fx="5818.78" fy="2784.06"> <stop offset="0" style="stop-opacity:1; stop-color:#FFFBD6"/> <stop offset="1" style="stop-opacity:1; stop-color:#FDD1A1"/> </radialGradient> </defs> <g id="Layer_x0020_1"> <metadata id="CorelCorpID_0Corel-Layer"/> <polygon class="fil0" points="2725,1013 8968,1013 8968,7255 2725,7255 "/> <path class="fil1" d="M4851 4819c153,-28 420,-72 575,-89 511,-54 1038,-29 1545,56 168,28 336,63 501,107 51,14 102,28 152,44 25,8 55,18 79,29 15,7 28,18 38,32 40,56 10,131 -14,187 -28,63 -61,124 -87,188 -18,45 -29,93 -36,140 -6,34 -11,86 -24,116 -110,257 -709,120 -903,38 0,0 132,-116 113,-124 -174,-67 -353,-108 -654,-136 -137,-13 -275,-15 -412,-10 -317,13 -636,64 -946,134 -200,46 -396,100 -592,161 -69,22 -153,33 -209,-23 -79,-80 -38,-243 -57,-349 -9,-49 -24,-91 -43,-135 -57,-126 -76,-285 26,-399 60,-67 364,-179 461,-214l38 -14c39,159 64,281 142,318 44,21 183,-34 307,-57z"/> <path class="fil2" d="M6461 3071c232,106 437,269 580,463 392,531 330,1383 -170,1817l-441 -80 -749 12 -769 118c-284,-259 -463,-633 -463,-1048 0,-684 484,-1254 1128,-1388 -3,-46 3,-92 17,-138 69,-235 344,-363 571,-333 -69,39 -131,84 -196,129 -37,25 -73,51 -105,82 -41,41 -69,85 -86,141 -8,28 -13,61 -12,93 4,0 9,0 13,-1 52,-48 121,-76 190,-93 93,-24 193,-17 282,18 81,31 155,89 192,169l18 39z"/> <path class="fil3" d="M5866 3039c725,0 1313,588 1313,1314 0,414 -192,784 -492,1025l-257 -107 -749 12 -633 97c-302,-241 -496,-611 -496,-1027 0,-726 588,-1314 1314,-1314z"/> <path class="fil4" d="M5866 3039c289,0 556,93 773,252 245,223 400,552 400,918 0,386 -172,729 -440,953l-229 -100 -669 13 -566 89c-270,-223 -442,-568 -442,-955 0,-366 154,-695 400,-918 217,-159 484,-252 773,-252z"/> <path class="fil5" d="M5946 3042c102,6 201,24 295,52l-368 1447 642 -1331c86,50 166,108 239,175l-820 1191 1009 -974c55,78 101,162 138,251l-1103 778 1179 -518c15,77 22,158 22,240 0,10 0,20 0,30l-1177 314 1148 -69c-17,83 -43,163 -76,240l-1213 -114 -48 -1 0 -26 -1 -3 -2 -2 -3 -2 -3 -1 -3 1 -3 2 -2 2 -1 3 1 22 -1140 117c-30,-71 -54,-144 -71,-221l1022 53 -1053 -270c-1,-25 -2,-50 -2,-75 0,-61 4,-120 12,-178l1065 457 -1008 -699c29,-87 67,-169 113,-247l940 891 -779 -1110c65,-70 137,-134 216,-190l623 1264 -370 -1403c91,-37 186,-65 285,-81l155 1472 142 -1487z"/> <path class="fil6" d="M5404 4424c-3,-3 -6,-7 -9,-11 -41,-54 -57,-120 -55,-186 1,-15 2,-32 5,-49 -19,-24 -31,-57 -39,-85 -13,-44 -12,-98 2,-145 -32,-6 -63,-18 -91,-35 -29,-18 -59,-41 -75,-72 -1,-2 -3,-4 -5,-5 -72,-3 -129,-40 -182,-95 -63,-67 -66,-139 -53,-228 14,-107 107,-184 204,-184 130,0 242,85 232,215 3,9 5,17 7,25 4,15 5,30 6,46 24,-70 55,-140 86,-193 11,-20 21,-45 30,-66 14,-32 30,-64 50,-93 0,-9 -22,-80 -20,-90 6,-57 57,-96 118,-97 6,-7 19,-13 26,-18 -32,-75 -24,-149 -2,-222 77,-189 192,-233 361,-293 -132,118 -259,150 -294,327 -14,46 -3,105 13,149 0,0 57,7 57,7 70,-79 126,-114 213,-136 160,-27 351,30 425,155 -68,-47 -141,-78 -203,-96 -53,-17 -101,-26 -190,-6 -89,32 -111,60 -147,96 -1,1 -2,2 -3,4 64,50 140,144 172,206 22,41 42,83 63,124 15,30 27,62 35,94 40,-149 337,-164 398,-32 5,11 8,23 9,34 12,81 -3,180 -61,240 -42,44 -87,76 -142,84 -24,46 -66,88 -102,118 -21,17 -52,30 -82,39 -12,94 -27,171 -66,261 5,23 15,50 28,65 0,0 0,0 0,0 -10,-13 -15,-30 -15,-47 0,-17 5,-33 15,-46 4,-15 13,-27 24,-37 7,-10 16,-19 26,-25 12,-12 27,-21 45,-23 10,-5 21,-8 33,-8 3,0 6,0 9,0 5,0 9,-1 13,-1 10,0 19,2 28,6 3,0 7,0 11,1 0,0 0,0 0,0 4,-15 12,-28 23,-37 3,-5 6,-9 9,-13 7,-13 16,-24 29,-32 6,-8 15,-15 25,-20 8,-8 19,-14 31,-18 12,-8 26,-12 41,-12 3,0 5,0 8,0 4,-1 9,-1 13,-1 9,0 17,2 25,4 15,1 28,5 39,13 13,4 23,10 32,19 16,9 29,23 36,40 3,5 6,10 9,16 5,6 9,13 12,20 9,12 16,26 18,41 5,11 8,23 8,35 0,9 -2,18 -5,27 0,6 -1,12 -3,17 0,2 0,3 0,5 0,8 -1,15 -3,23 0,1 0,1 0,2 0,15 -4,30 -12,42 -3,9 -7,17 -12,24 17,6 32,16 44,30 38,43 34,105 7,153 -31,54 -88,84 -149,89 -58,4 -119,-18 -168,-52 -58,63 -128,126 -194,168 -34,22 -70,40 -108,55 3,14 6,28 7,43 7,80 14,217 -34,284 -15,20 -32,40 -52,55 -8,6 -18,12 -28,15 -29,11 -61,3 -79,-24 -15,-25 -12,-55 5,-77 37,-45 44,-115 30,-169 -2,-10 -4,-20 -7,-31 -15,87 -42,199 -100,248 -21,18 -45,35 -70,46 -10,5 -20,8 -31,10 -31,5 -63,-10 -74,-41 -10,-27 0,-57 23,-74 54,-42 81,-120 81,-187 0,-4 0,-9 0,-14 -37,92 -93,206 -163,246 -27,15 -57,29 -87,35 -42,7 -91,-7 -97,-58 -3,-28 13,-54 38,-66 68,-34 115,-109 134,-182 -31,65 -73,132 -119,159 -21,12 -44,23 -67,27 -40,8 -83,-8 -90,-53 -5,-29 11,-56 36,-69 53,-27 88,-88 99,-145 7,-37 13,-74 23,-110 -76,39 -170,76 -236,63 -28,-5 -58,-14 -82,-29 -11,-7 -20,-15 -28,-26 -18,-24 -19,-56 -1,-80 16,-22 44,-30 69,-24 69,17 148,-11 202,-54 11,-9 23,-18 35,-28z"/> <path class="fil7" d="M6223 3720c0,0 -32,-46 -33,-99 -2,-53 13,-68 11,-80 -9,-88 54,-146 136,-146 22,0 -2,6 -10,27 -7,21 -14,65 -11,78 2,14 6,14 6,14 75,-7 86,-35 92,-100 0,-6 -6,-9 0,-11 20,-5 69,36 75,84 7,48 4,137 -45,188 -74,79 -131,80 -221,45z"/> <path class="fil8" d="M6365 4433c0,0 76,84 170,77 125,-10 144,-154 63,-154 -1,0 -3,0 -4,0 -2,-4 -6,-7 -11,-7 -2,0 -4,1 -5,2 -2,-6 -7,-10 -12,-10 -1,0 -2,0 -3,0 0,-8 -6,-13 -12,-13 -1,0 -2,0 -2,0 -1,-2 -1,-4 -2,-6 0,0 1,-1 1,-2 5,-1 9,-7 9,-14 6,-1 11,-7 11,-15 0,-1 -1,-2 -1,-3l0 0c7,0 13,-7 13,-15 0,-2 0,-3 0,-4 6,-1 10,-7 10,-15 0,-2 0,-4 -1,-5 6,-2 10,-8 10,-15 0,-5 -2,-9 -4,-12 4,-2 8,-7 8,-14 0,-4 -2,-9 -5,-12 4,-2 8,-7 8,-14 0,-3 -1,-6 -3,-9 4,-2 7,-7 7,-13 0,-7 -5,-14 -11,-15 2,-2 3,-6 3,-10 0,-8 -5,-15 -12,-15l-1 0c1,-2 1,-3 1,-5 0,-9 -5,-15 -12,-15l-1 0c1,-2 1,-4 1,-5 0,-8 -4,-13 -10,-15 0,-1 0,-2 0,-3 0,-8 -5,-15 -12,-15 -2,0 -4,1 -6,2l0 0c0,-9 -6,-16 -13,-16 -3,0 -5,2 -8,4 0,-7 -6,-13 -12,-13 -5,0 -9,3 -11,7 -1,-7 -6,-12 -12,-12 -5,0 -9,3 -11,7 -2,-3 -6,-6 -10,-6 -7,0 -13,7 -13,15 -2,-3 -6,-5 -9,-5 -7,0 -13,7 -13,14 -2,-1 -4,-1 -6,-1 -7,0 -12,7 -12,15 0,1 0,2 0,2 -2,-1 -4,-1 -5,-1 -7,0 -13,7 -13,15 0,2 0,3 1,5 -1,0 -1,0 -2,0 -7,0 -13,7 -13,15 0,1 0,1 0,2 0,0 -1,0 -1,0 -7,0 -13,7 -13,15 0,2 1,5 2,7 -7,1 -12,7 -12,15 0,3 1,5 2,7 -7,1 -12,7 -12,15 0,3 1,5 2,7 -7,1 -12,7 -12,15 0,3 1,7 3,9 -2,1 -4,2 -5,3 -3,-4 -7,-7 -11,-7 0,0 -1,0 -1,0 0,-1 0,-1 0,-2 0,-9 -5,-15 -12,-15 -3,0 -6,1 -8,3 0,-1 0,-2 0,-2 0,-9 -6,-15 -13,-15 -3,0 -7,1 -9,4 -2,-5 -7,-9 -12,-9 -5,0 -9,3 -11,8 -3,-5 -7,-8 -12,-8 -6,0 -11,6 -12,13 -2,-4 -6,-6 -10,-6 -7,0 -13,7 -13,15 0,1 0,1 0,2 -2,-1 -4,-2 -6,-2 -7,0 -13,7 -13,15 0,1 0,2 1,3 -1,0 -2,0 -3,0 -7,0 -13,6 -13,15 0,2 1,5 2,7l0 0c-7,0 -13,7 -13,15 0,7 4,13 10,15 5,27 64,79 64,79 0,0 -125,40 -164,-1 -40,-42 -50,-119 -50,-119 50,-108 61,-188 74,-302 0,0 69,-14 99,-39 30,-24 97,-86 97,-137 0,-50 -4,-92 -4,-92 0,0 -53,16 -71,42 -18,26 -22,38 -22,38 0,0 -70,9 -89,23 -19,14 -34,14 -34,14 0,0 50,-192 -30,-349 -65,-128 -149,-318 -246,-330 12,-21 29,-48 52,-72 41,-40 100,-68 167,-84 164,-38 341,80 341,80 -74,-62 -236,-138 -380,-101 -83,21 -179,104 -207,175 -22,1 -18,-1 -41,20 -17,17 -41,-61 -45,-75 -14,-56 -23,-129 -4,-195 43,-143 242,-248 242,-248 -90,32 -234,127 -276,270 -24,83 -10,208 39,267 -20,6 -35,13 -42,24 -21,28 -68,74 -71,108 -3,19 4,37 -8,54 -40,56 -59,123 -80,159 -52,89 -104,234 -120,325 -9,-8 -18,-16 -28,-21 -16,-8 -34,-10 -52,-9 -3,-9 -6,-17 -10,-24 -30,-47 -110,-50 -110,-50 0,0 -58,-2 -11,86 10,18 23,34 35,47 4,13 18,31 54,52 45,27 91,34 126,33 3,18 6,29 7,35l2 1c0,0 65,25 95,34 57,15 115,19 173,28 0,0 -94,4 -159,-11 -49,-11 -96,-29 -116,-36 -10,22 -28,72 -11,133 12,43 25,62 34,70 0,1 68,12 99,13 31,2 29,5 43,2 15,-3 133,-11 133,-11 0,0 -91,24 -158,23 -41,0 -81,-5 -106,-9 -8,34 -26,134 33,211 55,72 87,105 99,116l4 2c58,30 173,-13 227,-4 0,0 -74,22 -130,23 -36,1 -72,-3 -92,-5 7,25 29,86 59,112 13,11 31,20 49,26 -11,36 -21,82 -33,144 -33,171 -156,235 -171,242 -14,7 16,19 88,-21 71,-40 135,-211 159,-277 9,-26 13,-50 18,-72 5,1 8,2 8,2 0,0 23,35 69,54 1,1 3,1 4,2 -2,29 -2,66 -2,113 0,152 -95,228 -106,236 -11,9 20,9 74,-37 54,-47 78,-200 87,-260 3,-18 3,-34 3,-49 27,-2 59,-7 93,-16 1,33 10,75 26,140 31,130 -35,214 -43,223 -7,10 18,6 55,-45 37,-51 27,-188 23,-242 -3,-35 -15,-64 -15,-89 49,-16 100,-38 143,-66 118,-77 222,-203 222,-203z"/> <path class="fil9" d="M5380 3952c-10,22 -28,72 -11,133 12,43 25,62 34,70 0,1 68,12 99,13 59,4 117,-5 176,-9 0,0 -91,24 -158,23 -41,0 -81,-5 -106,-9 -8,34 -26,134 33,211 55,72 87,105 99,116l4 2c0,0 56,7 82,8 26,1 24,3 36,1 12,-3 109,-13 109,-13 0,0 -74,22 -130,23 -36,1 -72,-3 -92,-5 7,25 29,86 59,112 39,33 118,44 118,44 0,0 23,35 69,54 47,19 225,-13 342,-90 31,-20 61,-43 88,-66 -45,-6 -114,-20 -170,-50 -91,-48 -95,-34 -150,-100 -54,-66 -42,-57 -71,-132 -28,-76 24,-116 -28,-197 -52,-80 74,-124 79,-143 4,-15 -97,30 -201,47 -34,6 -75,-8 -104,-6 34,5 69,10 69,10 0,0 -94,4 -159,-11 -49,-11 -96,-29 -116,-36z"/> <path class="fil7" d="M5253 3757c0,0 37,-52 39,-112 1,-60 -15,-76 -14,-90 11,-101 -60,-165 -153,-165 -26,0 1,6 10,30 9,24 17,73 14,88 -3,15 -8,15 -8,15 -85,-7 -97,-39 -103,-113 -1,-7 7,-9 0,-11 -23,-6 -78,40 -86,94 -7,55 -4,155 51,214 84,89 149,90 250,50z"/> <path class="fil10" d="M5278 3555l0 0c11,-101 -60,-165 -153,-165 -26,0 1,6 10,30 9,24 17,73 14,88 -1,6 -3,10 -4,12l7 7c0,0 83,31 110,30 6,0 12,-1 16,-2z"/> <circle class="fil2" cx="5834" cy="3211" r="87"/> <circle class="fil11" cx="5834" cy="3211" r="81"/> <circle class="fil12" cx="5829" cy="3215" r="47"/> <circle class="fil2" cx="5825" cy="3215" r="30"/> <circle class="fil2" cx="5626" cy="3208" r="87"/> <circle class="fil11" cx="5795" cy="3251" r="25"/> <circle class="fil11" cx="5854" cy="3168" r="15"/> <circle class="fil11" cx="5627" cy="3207" r="81"/> <circle class="fil12" cx="5631" cy="3211" r="47"/> <circle class="fil2" cx="5635" cy="3211" r="30"/> <circle class="fil11" cx="5666" cy="3247" r="25"/> <circle class="fil11" cx="5606" cy="3164" r="15"/> <path class="fil11" d="M5526 3569c0,0 68,-45 164,-11 96,34 150,49 196,21 47,-27 68,-61 68,-61 0,0 14,120 -120,209 -133,89 -298,44 -288,36 33,-29 35,-166 4,-182l-24 -12z"/> <path class="fil13" d="M5526 3569c0,0 48,-55 144,-20 96,34 170,58 216,30 47,-27 68,-61 68,-61 0,0 14,120 -120,209 -17,12 -35,21 -53,28 21,-15 43,-32 53,-46 27,-33 36,-67 36,-67 0,0 -27,14 -50,17 -22,2 -35,-5 -35,-5 0,0 51,-3 57,-30 5,-20 -230,-72 -287,-39 -28,-16 -17,-11 -29,-16z"/> <path class="fil7" d="M5740 3151c0,0 31,-52 103,-30 71,21 74,63 74,63 26,-109 -150,-121 -170,-56 -7,23 -7,23 -7,23z"/> <path class="fil7" d="M5704 3169c-7,2 -24,-55 -88,-46 -64,9 -74,66 -74,66 -12,-112 156,-114 167,-46 4,23 -5,26 -5,26z"/> <path class="fil7" d="M5535 4487c-12,9 -25,19 -41,28 -54,32 -199,112 -271,98 -71,-14 -82,-41 -68,-38 14,4 134,31 255,-65 35,-28 63,-50 87,-66 17,20 29,33 38,43z"/> <path class="fil7" d="M5582 4580c-25,23 -22,64 -37,108 -19,52 -75,187 -130,219 -55,31 -72,20 -61,15 11,-6 107,-56 132,-189 22,-119 33,-159 76,-198 5,13 11,30 20,45z"/> <path class="fil14" d="M7167 4767c-1,1 -1,1 -1,2"/> <path class="fil2" d="M4934 4730c154,-29 423,-73 579,-90 514,-54 1045,-29 1555,56 169,29 338,64 504,108 51,14 102,28 153,45 25,8 55,17 79,29 16,7 29,18 39,32 40,56 10,132 -14,188 -28,64 -61,125 -88,189 -18,45 -29,94 -37,141 -5,34 -10,86 -23,117 -106,248 -597,154 -823,90 0,0 146,-144 127,-153 -220,-100 -385,-126 -757,-161 -138,-13 -277,-15 -415,-10 -319,13 -641,65 -952,135 -201,46 -399,101 -596,162 -69,22 -154,33 -210,-23 -80,-80 -39,-245 -58,-351 -9,-49 -23,-91 -43,-136 -57,-127 -76,-286 26,-402 61,-67 366,-180 464,-215l39 -14c38,160 64,283 143,320 44,21 184,-34 308,-57z"/> <path class="fil15" d="M4059 5214c30,170 -60,399 184,324 243,-76 1181,-367 1988,-290 624,59 1060,219 1230,274 91,30 95,70 95,70 0,0 28,-3 61,-81 14,-33 18,-153 60,-256 62,-151 160,-295 96,-326 -77,-37 -1090,-355 -2256,-231 -536,57 -832,183 -1231,229 -209,25 -311,-42 -312,-39 -28,105 55,157 85,326z"/> <path class="fil16" d="M7564 5543c10,-15 20,-36 24,-44 3,-8 5,-24 7,-33 3,-20 6,-41 10,-62 9,-55 21,-110 42,-162 27,-65 60,-127 89,-191 9,-21 19,-45 23,-68 1,-4 4,-20 1,-24 0,0 -1,-1 -1,-1 -7,-3 -15,-6 -23,-9 -14,-5 -29,-10 -44,-15 -49,-15 -99,-29 -148,-43 -163,-43 -330,-78 -496,-106 -501,-84 -1022,-108 -1528,-55 -169,18 -335,46 -501,82 -138,29 -275,64 -414,94 -104,22 -209,41 -315,54 -77,9 -157,8 -233,-10 -19,-4 -38,-10 -56,-17 0,6 0,12 1,19 6,32 25,68 38,98 24,52 41,102 51,159 5,30 7,60 7,90 1,45 -1,90 1,134 2,22 6,58 22,74 24,25 85,8 112,0 200,-62 400,-118 603,-164 318,-72 645,-125 970,-137 143,-6 286,-4 428,9 267,26 531,72 790,140 91,24 181,50 271,78 59,19 118,39 176,58 33,11 69,27 93,52z"/> <path class="fil13" d="M4463 4535c30,106 8,183 64,283 15,26 -720,161 -500,-85 53,-60 436,-198 436,-198z"/> <path class="fil1" d="M4463 4535c30,106 25,184 74,283 4,9 -53,24 -148,39 -30,-86 -53,-176 -66,-269 78,-30 140,-53 140,-53z"/> <path class="fil13" d="M6982 5409l84 72 -115 138c0,0 454,65 531,13 36,-24 21,-69 -39,-87 -59,-18 -461,-136 -461,-136z"/> <path class="fil1" d="M7184 5644c51,2 132,10 199,7 46,-2 88,-11 99,-19 36,-24 21,-69 -39,-87l-228 -67c31,48 79,87 -31,166z"/> <path class="fil7" d="M5705 3246c-6,-2 -24,56 -88,46 -64,-9 -74,-65 -74,-65 -11,111 157,113 168,46 4,-24 -6,-27 -6,-27z"/> <path class="fil17" d="M6201 3542l0 -1c-10,-88 54,-146 136,-146 22,0 -2,6 -10,27 -8,21 -14,65 -12,78 1,6 3,9 4,11l-7 5c0,0 -73,28 -97,27 -5,0 -10,-1 -14,-1z"/> </g> </svg>